<svg width="60" height="60" viewBox="0 0 60 60" fill="none" xmlns="http://www.w3.org/2000/svg">
<rect width="60" height="60" rx="30" fill="white"/>
<path opacity="0.4" d="M27.9168 14.0834C29.0668 13.1001 30.9501 13.1001 32.1168 14.0834L34.7501 16.3501C35.2501 16.7834 36.1835 17.1334 36.8501 17.1334H39.6835C41.4501 17.1334 42.9001 18.5834 42.9001 20.3501V23.1834C42.9001 23.8334 43.2501 24.7834 43.6835 25.2834L45.9501 27.9167C46.9335 29.0667 46.9335 30.9501 45.9501 32.1167L43.6835 34.7501C43.2501 35.2501 42.9001 36.1834 42.9001 36.8501V39.6834C42.9001 41.4501 41.4501 42.9001 39.6835 42.9001H36.8501C36.2001 42.9001 35.2501 43.2501 34.7501 43.6834L32.1168 45.9501C30.9668 46.9334 29.0835 46.9334 27.9168 45.9501L25.2835 43.6834C24.7835 43.2501 23.8501 42.9001 23.1835 42.9001H20.3001C18.5335 42.9001 17.0835 41.4501 17.0835 39.6834V36.8334C17.0835 36.1834 16.7335 35.2501 16.3168 34.7501L14.0668 32.1001C13.1001 30.9501 13.1001 29.0834 14.0668 27.9334L16.3168 25.2834C16.7335 24.7834 17.0835 23.8501 17.0835 23.2001V20.3334C17.0835 18.5667 18.5335 17.1167 20.3001 17.1167H23.1835C23.8335 17.1167 24.7835 16.7667 25.2835 16.3334L27.9168 14.0834Z" fill="url(#paint0_linear_910_92)"/>
<path d="M27.9842 35.2834C27.6509 35.2834 27.3342 35.15 27.1009 34.9167L23.0676 30.8834C22.5842 30.4 22.5842 29.6 23.0676 29.1167C23.5509 28.6334 24.3509 28.6334 24.8342 29.1167L27.9842 32.2667L35.1509 25.1C35.6342 24.6167 36.4342 24.6167 36.9176 25.1C37.4009 25.5834 37.4009 26.3834 36.9176 26.8667L28.8676 34.9167C28.6342 35.15 28.3176 35.2834 27.9842 35.2834Z" fill="url(#paint1_linear_910_92)"/>
<defs>
<linearGradient id="paint0_linear_910_92" x1="13.3418" y1="30.0167" x2="46.6876" y2="30.0167" gradientUnits="userSpaceOnUse">
<stop stop-color="#EC1E24"/>
<stop offset="1" stop-color="#7F2A8F"/>
</linearGradient>
<linearGradient id="paint1_linear_910_92" x1="22.7051" y1="30.0104" x2="37.2801" y2="30.0104" gradientUnits="userSpaceOnUse">
<stop stop-color="#EC1E24"/>
<stop offset="1" stop-color="#7F2A8F"/>
</linearGradient>
</defs>
</svg>
