<svg width="35" height="32" viewBox="0 0 35 32" fill="none" xmlns="http://www.w3.org/2000/svg">
<g clip-path="url(#clip0_1011_5139)">
<path d="M17.7083 2.66699C21.5188 2.66699 21.9942 2.68033 23.4893 2.74699C24.9829 2.81366 25.9997 3.03633 26.8945 3.36699C27.8201 3.70566 28.5999 4.16433 29.3796 4.90433C30.0928 5.57085 30.6446 6.37711 30.9967 7.26699C31.3431 8.11633 31.5787 9.08433 31.6488 10.5043C31.7147 11.9257 31.733 12.3777 31.733 16.0003C31.733 19.623 31.719 20.075 31.6488 21.4963C31.5787 22.9163 31.3431 23.883 30.9967 24.7337C30.6456 25.624 30.0937 26.4305 29.3796 27.0963C28.6783 27.7741 27.8303 28.2987 26.8945 28.6337C26.0011 28.963 24.9829 29.187 23.4893 29.2537C21.9942 29.3163 21.5188 29.3337 17.7083 29.3337C13.8978 29.3337 13.4223 29.3203 11.9273 29.2537C10.4337 29.187 9.41689 28.963 8.52211 28.6337C7.58572 28.2996 6.73751 27.7749 6.03694 27.0963C5.32365 26.4299 4.77181 25.6236 4.41989 24.7337C4.07208 23.8843 3.83787 22.9163 3.76774 21.4963C3.70183 20.075 3.68359 19.623 3.68359 16.0003C3.68359 12.3777 3.69762 11.9257 3.76774 10.5043C3.83787 9.08299 4.07208 8.11766 4.41989 7.26699C4.77084 6.37656 5.3228 5.57009 6.03694 4.90433C6.73771 4.22597 7.58586 3.7013 8.52211 3.36699C9.41689 3.03633 10.4323 2.81366 11.9273 2.74699C13.4223 2.68433 13.8978 2.66699 17.7083 2.66699ZM17.7083 9.33366C15.8485 9.33366 14.0649 10.036 12.7498 11.2863C11.4347 12.5365 10.6959 14.2322 10.6959 16.0003C10.6959 17.7684 11.4347 19.4641 12.7498 20.7144C14.0649 21.9646 15.8485 22.667 17.7083 22.667C19.5681 22.667 21.3517 21.9646 22.6668 20.7144C23.9818 19.4641 24.7206 17.7684 24.7206 16.0003C24.7206 14.2322 23.9818 12.5365 22.6668 11.2863C21.3517 10.036 19.5681 9.33366 17.7083 9.33366ZM26.8243 9.00033C26.8243 8.5583 26.6396 8.13438 26.3109 7.82181C25.9821 7.50925 25.5362 7.33366 25.0713 7.33366C24.6063 7.33366 24.1604 7.50925 23.8316 7.82181C23.5029 8.13438 23.3182 8.5583 23.3182 9.00033C23.3182 9.44235 23.5029 9.86628 23.8316 10.1788C24.1604 10.4914 24.6063 10.667 25.0713 10.667C25.5362 10.667 25.9821 10.4914 26.3109 10.1788C26.6396 9.86628 26.8243 9.44235 26.8243 9.00033ZM17.7083 12.0003C18.8242 12.0003 19.8943 12.4218 20.6834 13.1719C21.4724 13.922 21.9157 14.9395 21.9157 16.0003C21.9157 17.0612 21.4724 18.0786 20.6834 18.8288C19.8943 19.5789 18.8242 20.0003 17.7083 20.0003C16.5924 20.0003 15.5222 19.5789 14.7332 18.8288C13.9442 18.0786 13.5009 17.0612 13.5009 16.0003C13.5009 14.9395 13.9442 13.922 14.7332 13.1719C15.5222 12.4218 16.5924 12.0003 17.7083 12.0003Z" fill="url(#paint0_linear_1011_5139)"/>
</g>
<defs>
<linearGradient id="paint0_linear_1011_5139" x1="3.68359" y1="2.66699" x2="30.3162" y2="30.6806" gradientUnits="userSpaceOnUse">
<stop stop-color="#EC1E24"/>
<stop offset="1" stop-color="#902880"/>
</linearGradient>
<clipPath id="clip0_1011_5139">
<rect width="33.6593" height="32" fill="white" transform="translate(0.878906)"/>
</clipPath>
</defs>
</svg>
