<svg width="35" height="32" viewBox="0 0 35 32" fill="none" xmlns="http://www.w3.org/2000/svg">
<g clip-path="url(#clip0_1011_5151)">
<path d="M10.4302 6.66702C10.4298 7.37427 10.1339 8.0524 9.60765 8.55225C9.08136 9.0521 8.36776 9.33271 7.62385 9.33236C6.87993 9.332 6.16663 9.05071 5.64087 8.55037C5.1151 8.05002 4.81994 7.3716 4.82031 6.66436C4.82068 5.95711 5.11656 5.27898 5.64285 4.77913C6.16914 4.27928 6.88274 3.99867 7.62665 3.99902C8.37057 3.99938 9.08387 4.28067 9.60963 4.78102C10.1354 5.28136 10.4306 5.95978 10.4302 6.66702ZM10.5143 11.307H4.90446V28.0004H10.5143V11.307ZM19.3779 11.307H13.7961V28.0004H19.3218V19.2404C19.3218 14.3604 26.0116 13.907 26.0116 19.2404V28.0004H31.5514V17.427C31.5514 9.20036 21.6499 9.50702 19.3218 13.547L19.3779 11.307Z" fill="url(#paint0_linear_1011_5151)"/>
</g>
<defs>
<linearGradient id="paint0_linear_1011_5151" x1="4.82031" y1="3.99902" x2="28.6831" y2="30.5758" gradientUnits="userSpaceOnUse">
<stop stop-color="#EC1E24"/>
<stop offset="1" stop-color="#902880"/>
</linearGradient>
<clipPath id="clip0_1011_5151">
<rect width="33.6593" height="32" fill="white" transform="translate(0.695312)"/>
</clipPath>
</defs>
</svg>
