<svg width="26" height="37" viewBox="0 0 26 37" fill="none" xmlns="http://www.w3.org/2000/svg">
<path d="M13.1699 0.200195C6.16222 0.200195 0.460938 5.90148 0.460938 12.9091C0.460938 21.717 13.1824 36.7627 13.1824 36.7627C13.1824 36.7627 25.8788 21.2839 25.8788 12.9091C25.8788 5.90148 20.1778 0.200195 13.1699 0.200195ZM17.0044 16.6303C15.9471 17.6874 14.5586 18.2161 13.1699 18.2161C11.7814 18.2161 10.3924 17.6874 9.33556 16.6303C7.22112 14.5161 7.22112 11.0759 9.33556 8.96145C10.3594 7.93714 11.7214 7.373 13.1699 7.373C14.6184 7.373 15.9801 7.93737 17.0044 8.96145C19.1189 11.0759 19.1189 14.5161 17.0044 16.6303Z" fill="url(#paint0_linear_1011_5171)"/>
<defs>
<linearGradient id="paint0_linear_1011_5171" x1="0.460938" y1="0.200195" x2="34.7333" y2="24.026" gradientUnits="userSpaceOnUse">
<stop stop-color="#EC1E24"/>
<stop offset="1" stop-color="#902880"/>
</linearGradient>
</defs>
</svg>
