<svg width="30" height="30" viewBox="0 0 30 30" fill="none" xmlns="http://www.w3.org/2000/svg">
<path d="M10.0757 12.3491C11.1038 11.3211 11.1038 9.64832 10.0757 8.62023L6.46006 5.00459C5.90699 4.45146 5.14029 4.17121 4.3573 4.23566C3.58926 4.29888 2.89457 4.69041 2.45143 5.30974C2.35943 5.4383 2.27061 5.56873 2.18359 5.70021L9.45408 12.9707L10.0757 12.3491Z" fill="url(#paint0_linear_1011_5176)"/>
<path d="M24.9974 23.539L21.3818 19.9234C20.3538 18.8954 18.681 18.8953 17.6529 19.9234L17.0312 20.545L24.302 27.8158C24.4335 27.7288 24.5637 27.6396 24.6922 27.5476C25.3116 27.1045 25.7031 26.4098 25.7664 25.6418C25.8309 24.8587 25.5506 24.0922 24.9974 23.539Z" fill="url(#paint1_linear_1011_5176)"/>
<path d="M14.5437 21.9393C13.8394 21.9393 13.1773 21.665 12.6793 21.167L8.83317 17.3209C8.33518 16.8229 8.06084 16.1608 8.06084 15.4565C8.06084 15.0564 8.14961 14.67 8.31731 14.3195L1.28594 7.28809C0.296879 9.36482 -0.140816 11.6915 0.0397697 14.027C0.28311 17.174 1.64026 20.1303 3.86131 22.3513L7.64893 26.1389C9.86987 28.3599 12.8262 29.717 15.9733 29.9604C16.3172 29.987 16.6608 30.0002 17.0035 30.0002C18.9884 30.0002 20.9412 29.5577 22.7121 28.7143L15.6806 21.6828C15.3302 21.8506 14.9438 21.9393 14.5437 21.9393Z" fill="url(#paint2_linear_1011_5176)"/>
<path d="M17.6953 0C17.2099 0 16.8164 0.393516 16.8164 0.878906C16.8164 1.3643 17.2099 1.75781 17.6953 1.75781C23.5109 1.75781 28.2422 6.48914 28.2422 12.3047C28.2422 12.7901 28.6357 13.1836 29.1211 13.1836C29.6065 13.1836 30 12.7901 30 12.3047C30 5.51988 24.4801 0 17.6953 0Z" fill="url(#paint3_linear_1011_5176)"/>
<path d="M17.6953 12.3039C17.6953 12.3039 17.6953 12.3042 17.6953 12.3047C17.6953 12.7901 18.0888 13.1836 18.5742 13.1836C19.0596 13.1836 19.4531 12.7901 19.4531 12.3047C19.4531 11.3354 18.6646 10.5469 17.6953 10.5469C17.2099 10.5469 16.8164 10.94 16.8164 11.4254C16.8164 11.9108 17.2099 12.3039 17.6953 12.3039Z" fill="url(#paint4_linear_1011_5176)"/>
<path d="M17.6953 8.78906C19.6338 8.78906 21.2109 10.3662 21.2109 12.3047C21.2109 12.7901 21.6045 13.1836 22.0898 13.1836C22.5752 13.1836 22.9688 12.7901 22.9688 12.3047C22.9688 9.39691 20.6031 7.03125 17.6953 7.03125C17.2099 7.03125 16.8164 7.42477 16.8164 7.91016C16.8164 8.39555 17.2099 8.78906 17.6953 8.78906Z" fill="url(#paint5_linear_1011_5176)"/>
<path d="M17.6953 3.51562C17.2099 3.51562 16.8164 3.90914 16.8164 4.39453C16.8164 4.87992 17.2099 5.27344 17.6953 5.27344C21.5723 5.27344 24.7266 8.42766 24.7266 12.3047C24.7266 12.7901 25.1201 13.1836 25.6055 13.1836C26.0909 13.1836 26.4844 12.7901 26.4844 12.3047C26.4844 7.4584 22.5416 3.51562 17.6953 3.51562Z" fill="url(#paint6_linear_1011_5176)"/>
<defs>
<linearGradient id="paint0_linear_1011_5176" x1="2.18359" y1="4.22656" x2="10.9274" y2="12.8894" gradientUnits="userSpaceOnUse">
<stop stop-color="#EC1E24"/>
<stop offset="1" stop-color="#902880"/>
</linearGradient>
<linearGradient id="paint1_linear_1011_5176" x1="17.0312" y1="19.1523" x2="25.6943" y2="27.8962" gradientUnits="userSpaceOnUse">
<stop stop-color="#EC1E24"/>
<stop offset="1" stop-color="#902880"/>
</linearGradient>
<linearGradient id="paint2_linear_1011_5176" x1="0" y1="7.28809" x2="22.7121" y2="30.0002" gradientUnits="userSpaceOnUse">
<stop stop-color="#EC1E24"/>
<stop offset="1" stop-color="#902880"/>
</linearGradient>
<linearGradient id="paint3_linear_1011_5176" x1="16.8164" y1="0" x2="30" y2="13.1836" gradientUnits="userSpaceOnUse">
<stop stop-color="#EC1E24"/>
<stop offset="1" stop-color="#902880"/>
</linearGradient>
<linearGradient id="paint4_linear_1011_5176" x1="16.8164" y1="10.5469" x2="19.4531" y2="13.1836" gradientUnits="userSpaceOnUse">
<stop stop-color="#EC1E24"/>
<stop offset="1" stop-color="#902880"/>
</linearGradient>
<linearGradient id="paint5_linear_1011_5176" x1="16.8164" y1="7.03125" x2="22.9688" y2="13.1836" gradientUnits="userSpaceOnUse">
<stop stop-color="#EC1E24"/>
<stop offset="1" stop-color="#902880"/>
</linearGradient>
<linearGradient id="paint6_linear_1011_5176" x1="16.8164" y1="3.51562" x2="26.4844" y2="13.1836" gradientUnits="userSpaceOnUse">
<stop stop-color="#EC1E24"/>
<stop offset="1" stop-color="#902880"/>
</linearGradient>
</defs>
</svg>
