<svg width="21" height="21" viewBox="0 0 21 21" fill="none" xmlns="http://www.w3.org/2000/svg">
<path d="M7.21875 15.0938C7.0447 15.0938 6.87778 15.0246 6.75471 14.9016C6.63164 14.7785 6.5625 14.6116 6.5625 14.4375V6.56252C6.56256 6.4507 6.59119 6.34075 6.64568 6.2431C6.70016 6.14545 6.77869 6.06335 6.87382 6.00458C6.96895 5.9458 7.07752 5.91231 7.18922 5.90728C7.30093 5.90225 7.41207 5.92585 7.51209 5.97583L15.3871 9.91333C15.496 9.96789 15.5875 10.0517 15.6515 10.1553C15.7154 10.2589 15.7493 10.3782 15.7493 10.5C15.7493 10.6218 15.7154 10.7411 15.6515 10.8448C15.5875 10.9484 15.496 11.0321 15.3871 11.0867L7.51209 15.0242C7.42104 15.0698 7.3206 15.0937 7.21875 15.0938ZM7.875 7.62433V13.3757L13.6264 10.5L7.875 7.62433Z" fill="url(#paint0_linear_109_775)"/>
<path d="M10.5 2.625C12.0575 2.625 13.5801 3.08686 14.8751 3.95218C16.1702 4.81749 17.1795 6.0474 17.7756 7.48637C18.3716 8.92534 18.5275 10.5087 18.2237 12.0363C17.9198 13.5639 17.1698 14.9671 16.0685 16.0685C14.9671 17.1698 13.5639 17.9198 12.0363 18.2237C10.5087 18.5275 8.92534 18.3716 7.48637 17.7756C6.0474 17.1795 4.8175 16.1702 3.95218 14.8751C3.08686 13.5801 2.625 12.0575 2.625 10.5C2.625 8.41142 3.45469 6.40838 4.93154 4.93153C6.40839 3.45468 8.41142 2.625 10.5 2.625ZM10.5 1.3125C8.68289 1.3125 6.90658 1.85134 5.3957 2.86087C3.88483 3.87041 2.70724 5.3053 2.01186 6.9841C1.31648 8.66289 1.13454 10.5102 1.48904 12.2924C1.84354 14.0746 2.71857 15.7116 4.00346 16.9965C5.28836 18.2814 6.92541 19.1565 8.70761 19.511C10.4898 19.8655 12.3371 19.6835 14.0159 18.9881C15.6947 18.2928 17.1296 17.1152 18.1391 15.6043C19.1487 14.0934 19.6875 12.3171 19.6875 10.5C19.6875 8.06332 18.7195 5.72645 16.9965 4.00346C15.2736 2.28047 12.9367 1.3125 10.5 1.3125Z" fill="url(#paint1_linear_109_775)"/>
<defs>
<linearGradient id="paint0_linear_109_775" x1="6.5625" y1="5.90662" x2="15.7496" y2="15.0934" gradientUnits="userSpaceOnUse">
<stop stop-color="#EC1E24"/>
<stop offset="1" stop-color="#902880"/>
</linearGradient>
<linearGradient id="paint1_linear_109_775" x1="1.3125" y1="1.3125" x2="19.6875" y2="19.6875" gradientUnits="userSpaceOnUse">
<stop stop-color="#EC1E24"/>
<stop offset="1" stop-color="#902880"/>
</linearGradient>
</defs>
</svg>
