<svg width="10" height="16" viewBox="0 0 10 16" fill="none" xmlns="http://www.w3.org/2000/svg">
<path d="M6.56188 14.1094C6.56188 14.4616 6.42195 14.7994 6.17288 15.0485C5.9238 15.2976 5.58599 15.4375 5.23375 15.4375C4.88151 15.4375 4.5437 15.2976 4.29462 15.0485C4.04555 14.7994 3.90563 14.4616 3.90563 14.1094C3.90563 13.7571 4.04555 13.4193 4.29462 13.1702C4.5437 12.9212 4.88151 12.7812 5.23375 12.7812C5.58599 12.7812 5.9238 12.9212 6.17288 13.1702C6.42195 13.4193 6.56188 13.7571 6.56188 14.1094ZM5.28262 11.8367C4.53356 11.8367 3.92528 11.2752 3.92528 10.5829V9.10075C3.92528 8.18541 4.63503 7.40022 5.60934 7.23394C6.43756 7.09315 7.03469 6.42219 7.03469 5.64231V4.98144C7.03469 4.0815 6.26863 3.33297 5.32247 3.31172C4.85791 3.29775 4.4059 3.46371 4.06075 3.77497C3.72287 4.0815 3.53694 4.49216 3.53694 4.92937C3.53694 5.62106 2.92866 6.18312 2.17959 6.18312C1.43053 6.18312 0.816406 5.62106 0.816406 4.92406C0.816406 3.80631 1.29506 2.7555 2.15675 1.97562C3.02428 1.19469 4.16753 0.773937 5.37878 0.799968C7.78906 0.846718 9.74938 2.72416 9.74938 4.97612V5.64231C9.74938 7.42572 8.51528 8.98334 6.73559 9.54541C6.70805 9.55388 6.68393 9.57091 6.66674 9.59403C6.64954 9.61715 6.64016 9.64515 6.63997 9.67397V10.5782C6.63997 11.2752 6.03222 11.8367 5.28262 11.8367Z" fill="white"/>
</svg>
