<svg style="isolation: isolate;" pointer-events="none" width="100%" viewBox="0 0 1270 275" fill="none" xmlns="http://www.w3.org/2000/svg" preserveAspectRatio="xMidYMid meet">
  <g filter="url(#filter0_dd_main_1570)">
    <path d="M635 254C977.178 254 1255 199.108 1255 131.5C1255 63.8923 977.178 9 635 9C292.822 9 15 63.8923 15 131.5C15 199.108 292.822 254 635 254Z" fill="none" fill-opacity="0.5"/>
    <path d="M635 254C977.178 254 1255 199.108 1255 131.5C1255 63.8923 977.178 9 635 9C292.822 9 15 63.8923 15 131.5C15 199.108 292.822 254 635 254Z" stroke="url(#paint0_linear_main_1570)"/>
  </g>
  <defs>
    <filter id="filter0_dd_main_1570" x="0.5" y="0.5" width="1269" height="274" filterUnits="userSpaceOnUse" color-interpolation-filters="sRGB">
      <feFlood flood-opacity="0" result="BackgroundImageFix"/>
      <feColorMatrix in="SourceAlpha" type="matrix" values="0 0 0 0 0 0 0 0 0 0 0 0 0 0 0 0 0 0 127 0" result="hardAlpha"/>
      <feOffset dy="2"/>
      <feGaussianBlur stdDeviation="1.5"/>
      <feColorMatrix type="matrix" values="0 0 0 0 0 0 0 0 0 0 0 0 0 0 0 0 0 0 0.3 0"/>
      <feBlend mode="normal" in2="BackgroundImageFix" result="effect1_dropShadow_main_1570"/>
      <feColorMatrix in="SourceAlpha" type="matrix" values="0 0 0 0 0 0 0 0 0 0 0 0 0 0 0 0 0 0 127 0" result="hardAlpha"/>
      <feMorphology radius="4" operator="dilate" in="SourceAlpha" result="effect2_dropShadow_main_1570"/>
      <feOffset dy="6"/>
      <feGaussianBlur stdDeviation="5"/>
      <feColorMatrix type="matrix" values="0 0 0 0 0 0 0 0 0 0 0 0 0 0 0 0 0 0 0.15 0"/>
      <feBlend mode="normal" in2="effect1_dropShadow_main_1570" result="effect2_dropShadow_main_1570"/>
      <feBlend mode="normal" in="SourceGraphic" in2="effect2_dropShadow_main_1570" result="shape"/>
    </filter>
    <linearGradient id="paint0_linear_main_1570" x1="15" y1="254" x2="5.50436" y2="-29.8053" gradientUnits="userSpaceOnUse">
      <stop stop-color="#D91C5E"/>
      <stop offset="1"/>
    </linearGradient>
  </defs>
</svg>