<svg width="42" height="41" viewBox="0 0 42 41" fill="none" xmlns="http://www.w3.org/2000/svg">
<path d="M12.5 0C12.1022 3.97753e-05 11.7207 0.158088 11.4394 0.439384C11.1581 0.72068 11 1.10219 11 1.5V9H7.5C3.364 9 0 12.364 0 16.5V30.5C0 34.636 3.364 38 7.5 38H25.6699C24.2249 37.302 22.9765 36.27 22.0195 35H7.5C5.019 35 3 32.981 3 30.5V16.5C3 14.019 5.019 12 7.5 12H32.5C34.981 12 37 14.019 37 16.5V21.8711C38.625 23.4671 39.7092 25.61 39.9492 28H40V16.5C40 12.364 36.636 9 32.5 9H29V1.5C29 1.10219 28.8419 0.72068 28.5606 0.439384C28.2793 0.158088 27.8978 3.97753e-05 27.5 0H12.5ZM14 3H26V9H14V3ZM30 21C25.589 21 22 24.589 22 29C22 33.411 25.589 37 30 37C31.665 37 33.2102 36.4873 34.4922 35.6133L39.4395 40.5605C39.7325 40.8545 40.116 41 40.5 41C40.884 41 41.2675 40.8535 41.5605 40.5605C42.1455 39.9745 42.1455 39.0255 41.5605 38.4395L36.6152 33.4922C37.4882 32.2102 38 30.665 38 29C38 24.589 34.411 21 30 21ZM30 24C32.757 24 35 26.243 35 29C35 31.757 32.757 34 30 34C27.243 34 25 31.757 25 29C25 26.243 27.243 24 30 24Z" fill="white"/>
</svg>
