<svg width="35" height="32" viewBox="0 0 35 32" fill="none" xmlns="http://www.w3.org/2000/svg">
<g clip-path="url(#clip0_1011_5163)">
<path d="M30.7249 8.66367C31.3658 11.0397 31.3658 15.9997 31.3658 15.9997C31.3658 15.9997 31.3658 20.9597 30.7249 23.3357C30.3686 24.649 29.3266 25.6823 28.0069 26.0317C25.6101 26.6663 17.3411 26.6663 17.3411 26.6663C17.3411 26.6663 9.07635 26.6663 6.67532 26.0317C5.34999 25.677 4.30935 24.645 3.95733 23.3357C3.31641 20.9597 3.31641 15.9997 3.31641 15.9997C3.31641 15.9997 3.31641 11.0397 3.95733 8.66367C4.31356 7.35034 5.3556 6.31701 6.67532 5.96767C9.07635 5.33301 17.3411 5.33301 17.3411 5.33301C17.3411 5.33301 25.6101 5.33301 28.0069 5.96767C29.3322 6.32234 30.3728 7.35434 30.7249 8.66367ZM14.5362 20.6663L22.951 15.9997L14.5362 11.333V20.6663Z" fill="url(#paint0_linear_1011_5163)"/>
</g>
<defs>
<linearGradient id="paint0_linear_1011_5163" x1="3.31641" y1="5.33301" x2="23.8749" y2="32.3636" gradientUnits="userSpaceOnUse">
<stop stop-color="#EC1E24"/>
<stop offset="1" stop-color="#902880"/>
</linearGradient>
<clipPath id="clip0_1011_5163">
<rect width="33.6593" height="32" fill="white" transform="translate(0.511719)"/>
</clipPath>
</defs>
</svg>
